<svg width="96" height="32" viewBox="0 0 96 32" fill="none" xmlns="http://www.w3.org/2000/svg">
<path d="M22.5552 32H16.598V9.76712H22.5552V32Z" fill="white"/>
<path d="M31.8369 32H25.8797V0H31.8369V32Z" fill="white"/>
<path d="M40.4202 9.76712L40.6051 12.2534C42.18 10.3219 44.3095 9.35616 46.9937 9.35616C49.8559 9.35616 51.8211 10.4863 52.8893 12.7466C54.4505 10.4863 56.6759 9.35616 59.5655 9.35616C61.9757 9.35616 63.7697 10.0616 64.9475 11.4726C66.1252 12.8699 66.7141 14.9795 66.7141 17.8014V32H60.7569V17.8219C60.7569 16.5616 60.5104 15.6438 60.0174 15.0685C59.5244 14.4795 58.6548 14.1849 57.4085 14.1849C55.6282 14.1849 54.3957 15.0342 53.711 16.7329L53.7315 32H47.7949V17.8425C47.7949 16.5548 47.5415 15.6233 47.0348 15.0479C46.5281 14.4726 45.6653 14.1849 44.4465 14.1849C42.762 14.1849 41.5432 14.8836 40.79 16.2808V32H34.8533V9.76712H40.4202Z" fill="white"/>
<path d="M75.6672 32H69.71V9.76712H75.6672V32Z" fill="white"/>
<path d="M3.30728 14.1233V32H9.26448V14.1233H13.6399V9.76712H9.26448V8.86301C9.26448 6.41096 10.6476 5.18493 13.414 5.18493V0C10.3327 0 7.57318 0.767123 5.87504 2.28767C4.19058 3.79452 3.33466 5.94521 3.30728 8.73973V9.76712H0V14.1233H3.30728Z" fill="white"/>
<path d="M78.9089 16C78.9089 13.707 79.6022 11.4676 80.8977 9.57563L87.4544 0L94.0112 9.57563C95.3067 11.4676 95.9999 13.707 95.9999 16C95.9999 18.293 95.3067 20.5324 94.0112 22.4244L87.4544 32L80.8977 22.4244C79.6022 20.5324 78.9089 18.293 78.9089 16Z" fill="white"/>
<ellipse cx="87.4544" cy="16.08" rx="8.54551" ry="8.56" fill="#0267C1"/>
<ellipse cx="87.4544" cy="16.08" rx="3.43417" ry="3.44" fill="#020209"/>
<ellipse cx="19.5287" cy="4.16438" rx="4.16438" ry="4.16319" transform="rotate(90 19.5287 4.16438)" fill="#EF2E3B"/>
<ellipse cx="72.5546" cy="4.16438" rx="4.16438" ry="4.1632" transform="rotate(90 72.5546 4.16438)" fill="#F4C93E"/>
</svg>
