<svg width="235" height="64" viewBox="0 0 235 64" fill="none" xmlns="http://www.w3.org/2000/svg">
<rect width="235" height="64" fill="#0267C1"/>
<path d="M44.976 38.16C44.112 38.16 43.2747 38.0373 42.464 37.792C41.664 37.5467 41.0293 37.2213 40.56 36.816L41.28 35.2C41.7387 35.5627 42.2987 35.8613 42.96 36.096C43.632 36.32 44.304 36.432 44.976 36.432C45.808 36.432 46.4267 36.2987 46.832 36.032C47.248 35.7653 47.456 35.4133 47.456 34.976C47.456 34.656 47.3387 34.3947 47.104 34.192C46.88 33.9787 46.592 33.8133 46.24 33.696C45.888 33.5787 45.408 33.4453 44.8 33.296C43.9467 33.0933 43.2533 32.8907 42.72 32.688C42.1973 32.4853 41.744 32.1707 41.36 31.744C40.9867 31.3067 40.8 30.72 40.8 29.984C40.8 29.3653 40.9653 28.8053 41.296 28.304C41.6373 27.792 42.144 27.3867 42.816 27.088C43.4987 26.7893 44.3307 26.64 45.312 26.64C45.9947 26.64 46.6667 26.7253 47.328 26.896C47.9893 27.0667 48.56 27.312 49.04 27.632L48.384 29.248C47.8933 28.96 47.3813 28.7413 46.848 28.592C46.3147 28.4427 45.7973 28.368 45.296 28.368C44.4747 28.368 43.8613 28.5067 43.456 28.784C43.0613 29.0613 42.864 29.4293 42.864 29.888C42.864 30.208 42.976 30.4693 43.2 30.672C43.4347 30.8747 43.728 31.0347 44.08 31.152C44.432 31.2693 44.912 31.4027 45.52 31.552C46.352 31.744 47.0347 31.9467 47.568 32.16C48.1013 32.3627 48.5547 32.6773 48.928 33.104C49.312 33.5307 49.504 34.1067 49.504 34.832C49.504 35.4507 49.3333 36.0107 48.992 36.512C48.6613 37.0133 48.1547 37.4133 47.472 37.712C46.7893 38.0107 45.9573 38.16 44.976 38.16ZM61.2465 36.256V38H52.8465V26.8H61.0225V28.544H54.9265V31.456H60.3345V33.168H54.9265V36.256H61.2465ZM72.1093 35.408H66.5092L65.4052 38H63.2612L68.3012 26.8H70.3492L75.4052 38H73.2292L72.1093 35.408ZM71.4212 33.776L69.3092 28.88L67.2132 33.776H71.4212ZM85.4376 38L83.1496 34.72C83.0536 34.7307 82.9096 34.736 82.7176 34.736H80.1896V38H78.1096V26.8H82.7176C83.6883 26.8 84.531 26.96 85.2456 27.28C85.971 27.6 86.5256 28.0587 86.9096 28.656C87.2936 29.2533 87.4856 29.9627 87.4856 30.784C87.4856 31.6267 87.2776 32.352 86.8616 32.96C86.4563 33.568 85.8696 34.0213 85.1016 34.32L87.6776 38H85.4376ZM85.3896 30.784C85.3896 30.0693 85.155 29.52 84.6856 29.136C84.2163 28.752 83.5283 28.56 82.6216 28.56H80.1896V33.024H82.6216C83.5283 33.024 84.2163 32.832 84.6856 32.448C85.155 32.0533 85.3896 31.4987 85.3896 30.784ZM96.2767 38.16C95.1461 38.16 94.1221 37.9147 93.2047 37.424C92.2981 36.9227 91.5834 36.2347 91.0607 35.36C90.5487 34.4853 90.2927 33.4987 90.2927 32.4C90.2927 31.3013 90.5541 30.3147 91.0767 29.44C91.5994 28.5653 92.3141 27.8827 93.2207 27.392C94.1381 26.8907 95.1621 26.64 96.2927 26.64C97.2101 26.64 98.0474 26.8 98.8047 27.12C99.5621 27.44 100.202 27.904 100.725 28.512L99.3807 29.776C98.5701 28.9013 97.5727 28.464 96.3887 28.464C95.6207 28.464 94.9327 28.6347 94.3247 28.976C93.7167 29.3067 93.2421 29.7707 92.9007 30.368C92.5594 30.9653 92.3887 31.6427 92.3887 32.4C92.3887 33.1573 92.5594 33.8347 92.9007 34.432C93.2421 35.0293 93.7167 35.4987 94.3247 35.84C94.9327 36.1707 95.6207 36.336 96.3887 36.336C97.5727 36.336 98.5701 35.8933 99.3807 35.008L100.725 36.288C100.202 36.896 99.5567 37.36 98.7887 37.68C98.0314 38 97.1941 38.16 96.2767 38.16ZM113.95 26.8V38H111.87V33.2H106.078V38H103.998V26.8H106.078V31.424H111.87V26.8H113.95ZM134.221 38L134.205 30.576L130.525 36.72H129.597L125.917 30.672V38H123.933V26.8H125.645L130.093 34.224L134.461 26.8H136.173L136.189 38H134.221ZM145.726 38.16C144.585 38.16 143.555 37.9147 142.638 37.424C141.721 36.9227 141.001 36.2347 140.478 35.36C139.955 34.4747 139.694 33.488 139.694 32.4C139.694 31.312 139.955 30.3307 140.478 29.456C141.001 28.5707 141.721 27.8827 142.638 27.392C143.555 26.8907 144.585 26.64 145.726 26.64C146.867 26.64 147.897 26.8907 148.814 27.392C149.731 27.8827 150.451 28.5653 150.974 29.44C151.497 30.3147 151.758 31.3013 151.758 32.4C151.758 33.4987 151.497 34.4853 150.974 35.36C150.451 36.2347 149.731 36.9227 148.814 37.424C147.897 37.9147 146.867 38.16 145.726 38.16ZM145.726 36.336C146.473 36.336 147.145 36.1707 147.742 35.84C148.339 35.4987 148.809 35.0293 149.15 34.432C149.491 33.824 149.662 33.1467 149.662 32.4C149.662 31.6533 149.491 30.9813 149.15 30.384C148.809 29.776 148.339 29.3067 147.742 28.976C147.145 28.6347 146.473 28.464 145.726 28.464C144.979 28.464 144.307 28.6347 143.71 28.976C143.113 29.3067 142.643 29.776 142.302 30.384C141.961 30.9813 141.79 31.6533 141.79 32.4C141.79 33.1467 141.961 33.824 142.302 34.432C142.643 35.0293 143.113 35.4987 143.71 35.84C144.307 36.1707 144.979 36.336 145.726 36.336ZM165.123 26.8L160.243 38H158.195L153.299 26.8H155.555L159.283 35.44L163.043 26.8H165.123ZM167.585 26.8H169.665V38H167.585V26.8ZM182.375 36.256V38H173.975V26.8H182.151V28.544H176.055V31.456H181.463V33.168H176.055V36.256H182.375ZM189.445 38.16C188.581 38.16 187.744 38.0373 186.933 37.792C186.133 37.5467 185.499 37.2213 185.029 36.816L185.749 35.2C186.208 35.5627 186.768 35.8613 187.429 36.096C188.101 36.32 188.773 36.432 189.445 36.432C190.277 36.432 190.896 36.2987 191.301 36.032C191.717 35.7653 191.925 35.4133 191.925 34.976C191.925 34.656 191.808 34.3947 191.573 34.192C191.349 33.9787 191.061 33.8133 190.709 33.696C190.357 33.5787 189.877 33.4453 189.269 33.296C188.416 33.0933 187.723 32.8907 187.189 32.688C186.667 32.4853 186.213 32.1707 185.829 31.744C185.456 31.3067 185.269 30.72 185.269 29.984C185.269 29.3653 185.435 28.8053 185.765 28.304C186.107 27.792 186.613 27.3867 187.285 27.088C187.968 26.7893 188.8 26.64 189.781 26.64C190.464 26.64 191.136 26.7253 191.797 26.896C192.459 27.0667 193.029 27.312 193.509 27.632L192.853 29.248C192.363 28.96 191.851 28.7413 191.317 28.592C190.784 28.4427 190.267 28.368 189.765 28.368C188.944 28.368 188.331 28.5067 187.925 28.784C187.531 29.0613 187.333 29.4293 187.333 29.888C187.333 30.208 187.445 30.4693 187.669 30.672C187.904 30.8747 188.197 31.0347 188.549 31.152C188.901 31.2693 189.381 31.4027 189.989 31.552C190.821 31.744 191.504 31.9467 192.037 32.16C192.571 32.3627 193.024 32.6773 193.397 33.104C193.781 33.5307 193.973 34.1067 193.973 34.832C193.973 35.4507 193.803 36.0107 193.461 36.512C193.131 37.0133 192.624 37.4133 191.941 37.712C191.259 38.0107 190.427 38.16 189.445 38.16Z" fill="white"/>
</svg>
