<svg width="56" height="56" viewBox="0 0 56 56" fill="none" xmlns="http://www.w3.org/2000/svg">
<circle cx="28" cy="28" r="26.5" stroke="#50AD5D" stroke-width="3"/>
<path d="M28 20.5C23 20.5 18.73 23.61 17 28C18.73 32.39 23 35.5 28 35.5C33 35.5 37.27 32.39 39 28C37.27 23.61 33.005 20.5 28 20.5ZM28 33C25.24 33 23 30.76 23 28C23 25.24 25.24 23 28 23C30.76 23 33 25.24 33 28C33 30.76 30.76 33 28 33ZM28 25C26.345 25 25 26.345 25 28C25 29.655 26.345 31 28 31C29.655 31 31 29.655 31 28C31 26.345 29.655 25 28 25Z" fill="#50AD5D"/>
</svg>
