<svg width="56" height="56" viewBox="0 0 56 56" fill="none" xmlns="http://www.w3.org/2000/svg">
<circle cx="28" cy="28" r="26.5" stroke="#50AD5D" stroke-width="3"/>
<path d="M20 26.5C19.17 26.5 18.5 27.17 18.5 28C18.5 28.83 19.17 29.5 20 29.5C20.83 29.5 21.5 28.83 21.5 28C21.5 27.17 20.83 26.5 20 26.5ZM20 20.5C19.17 20.5 18.5 21.17 18.5 22C18.5 22.83 19.17 23.5 20 23.5C20.83 23.5 21.5 22.83 21.5 22C21.5 21.17 20.83 20.5 20 20.5ZM20 32.5C19.165 32.5 18.5 33.175 18.5 34C18.5 34.825 19.175 35.5 20 35.5C20.825 35.5 21.5 34.825 21.5 34C21.5 33.175 20.835 32.5 20 32.5ZM23 35H37V33H23V35ZM23 29H37V27H23V29ZM23 21V23H37V21H23Z" fill="#50AD5D"/>
</svg>
